HIERARCHY
ROOT Hips
{
  OFFSET 0.0793595 82.2344 2.42657
  CHANNELS 6 Xposition Yposition Zposition Zrotation Xrotation Yrotation
  JOINT Spine
  {
    OFFSET 0 10.1816 0.1315
    CHANNELS 6 Xposition Yposition Zposition Zrotation Xrotation Yrotation
    JOINT Spine1
    {
      OFFSET 0 10.0835 -1.0008
      CHANNELS 6 Xposition Yposition Zposition Zrotation Xrotation Yrotation
      JOINT Spine2
      {
        OFFSET 0 9.1 -1.3734
        CHANNELS 6 Xposition Yposition Zposition Zrotation Xrotation Yrotation
        JOINT Neck1
        {
          OFFSET 0 16.6717 -2.5162
          CHANNELS 6 Xposition Yposition Zposition Zrotation Xrotation Yrotation
          JOINT Neck2
          {
            OFFSET 0 9.6179 1.685
            CHANNELS 6 Xposition Yposition Zposition Zrotation Xrotation Yrotation
            JOINT Skull
            {
              OFFSET 0 7.59293 2.585
              CHANNELS 6 Xposition Yposition Zposition Zrotation Xrotation Yrotation
              End Site
              {
                OFFSET 0 0 0
              }
            }
          }
        }
        JOINT LeftShoulder
        {
          OFFSET 4.5704 10.946 -2.628
          CHANNELS 6 Xposition Yposition Zposition Zrotation Xrotation Yrotation
          JOINT LeftArm
          {
            OFFSET 10.5924 -0.5246 -2.2321
            CHANNELS 6 Xposition Yposition Zposition Zrotation Xrotation Yrotation
            JOINT LeftForeArm
            {
              OFFSET 27.8415 -0.0001 0
              CHANNELS 6 Xposition Yposition Zposition Zrotation Xrotation Yrotation
              JOINT LeftHand
              {
                OFFSET 28.3288 0 0
                CHANNELS 6 Xposition Yposition Zposition Zrotation Xrotation Yrotation
                JOINT LeftHandThumb1
                {
                  OFFSET 2.4661 -1.575 2.6824
                  CHANNELS 6 Xposition Yposition Zposition Zrotation Xrotation Yrotation
                  JOINT LeftHandThumb2
                  {
                    OFFSET 3.2298 -1.8647 1.8647
                    CHANNELS 6 Xposition Yposition Zposition Zrotation Xrotation Yrotation
                    End Site
                    {
                      OFFSET 2.6526 -1.5315 1.5315
                    }
                  }
                }
                JOINT LeftHandIndex1
                {
                  OFFSET 9.1093 -0.5171 2.2601
                  CHANNELS 6 Xposition Yposition Zposition Zrotation Xrotation Yrotation
                  JOINT LeftHandIndex2
                  {
                    OFFSET 3.6764 0 0
                    CHANNELS 6 Xposition Yposition Zposition Zrotation Xrotation Yrotation
                    End Site
                    {
                      OFFSET 2.8831 0 0
                    }
                  }
                }
                JOINT LeftHandMiddle1
                {
                  OFFSET 9.5334 0 0
                  CHANNELS 6 Xposition Yposition Zposition Zrotation Xrotation Yrotation
                  JOINT LeftHandMiddle2
                  {
                    OFFSET 3.6982 0 0
                    CHANNELS 6 Xposition Yposition Zposition Zrotation Xrotation Yrotation
                    End Site
                    {
                      OFFSET 2.9509 0 0
                    }
                  }
                }
                JOINT LeftHandRing1
                {
                  OFFSET 9.1045 -0.0439 -1.8651
                  CHANNELS 6 Xposition Yposition Zposition Zrotation Xrotation Yrotation
                  JOINT LeftHandRing2
                  {
                    OFFSET 3.154 0 0
                    CHANNELS 6 Xposition Yposition Zposition Zrotation Xrotation Yrotation
                    End Site
                    {
                      OFFSET 2.9377 0 0
                    }
                  }
                }
                JOINT LeftHandPinky1
                {
                  OFFSET 8.0778 -0.4887 -3.8061
                  CHANNELS 6 Xposition Yposition Zposition Zrotation Xrotation Yrotation
                  JOINT LeftHandPinky2
                  {
                    OFFSET 3.6 0 0
                    CHANNELS 6 Xposition Yposition Zposition Zrotation Xrotation Yrotation
                    End Site
                    {
                      OFFSET 2.1142 0 0
                    }
                  }
                }
              }
            }
          }
        }
        JOINT RightShoulder
        {
          OFFSET -4.57 10.9462 -2.628
          CHANNELS 6 Xposition Yposition Zposition Zrotation Xrotation Yrotation
          JOINT RightArm
          {
            OFFSET -10.5928 -0.5248 -2.2321
            CHANNELS 6 Xposition Yposition Zposition Zrotation Xrotation Yrotation
            JOINT RightForeArm
            {
              OFFSET -27.8415 0 0
              CHANNELS 6 Xposition Yposition Zposition Zrotation Xrotation Yrotation
              JOINT RightHand
              {
                OFFSET -28.3288 0 0.0001
                CHANNELS 6 Xposition Yposition Zposition Zrotation Xrotation Yrotation
                JOINT RightHandPinky1
                {
                  OFFSET -8.0767 -0.4885 -3.806
                  CHANNELS 6 Xposition Yposition Zposition Zrotation Xrotation Yrotation
                  JOINT RightHandPinky2
                  {
                    OFFSET -3.6 0 0.0001
                    CHANNELS 6 Xposition Yposition Zposition Zrotation Xrotation Yrotation
                    End Site
                    {
                      OFFSET -2.1142 0 0
                    }
                  }
                }
                JOINT RightHandRing1
                {
                  OFFSET -9.1036 -0.0439 -1.8651
                  CHANNELS 6 Xposition Yposition Zposition Zrotation Xrotation Yrotation
                  JOINT RightHandRing2
                  {
                    OFFSET -3.154 0 0
                    CHANNELS 6 Xposition Yposition Zposition Zrotation Xrotation Yrotation
                    End Site
                    {
                      OFFSET -2.9377 0 0
                    }
                  }
                }
                JOINT RightHandMiddle1
                {
                  OFFSET -9.5325 0 0
                  CHANNELS 6 Xposition Yposition Zposition Zrotation Xrotation Yrotation
                  JOINT RightHandMiddle2
                  {
                    OFFSET -3.6982 0 0
                    CHANNELS 6 Xposition Yposition Zposition Zrotation Xrotation Yrotation
                    End Site
                    {
                      OFFSET -2.9509 0 0
                    }
                  }
                }
                JOINT RightHandIndex1
                {
                  OFFSET -9.1083 -0.5168 2.2601
                  CHANNELS 6 Xposition Yposition Zposition Zrotation Xrotation Yrotation
                  JOINT RightHandIndex2
                  {
                    OFFSET -3.6764 0 0
                    CHANNELS 6 Xposition Yposition Zposition Zrotation Xrotation Yrotation
                    End Site
                    {
                      OFFSET -2.8831 0 0
                    }
                  }
                }
                JOINT RightHandThumb1
                {
                  OFFSET -2.4648 -1.5727 2.6826
                  CHANNELS 6 Xposition Yposition Zposition Zrotation Xrotation Yrotation
                  JOINT RightHandThumb2
                  {
                    OFFSET -3.2298 -1.8647 1.8647
                    CHANNELS 6 Xposition Yposition Zposition Zrotation Xrotation Yrotation
                    End Site
                    {
                      OFFSET -2.6526 -1.5314 1.5314
                    }
                  }
                }
              }
            }
          }
        }
      }
    }
  }
  JOINT LeftUpLeg
  {
    OFFSET 8.2078 -6.7517 -1.5996
    CHANNELS 6 Xposition Yposition Zposition Zrotation Xrotation Yrotation
    JOINT LeftLeg
    {
      OFFSET 0 -44.3705 0.2846
      CHANNELS 6 Xposition Yposition Zposition Zrotation Xrotation Yrotation
      JOINT LeftFoot
      {
        OFFSET 0 -44.4279 -2.9822
        CHANNELS 6 Xposition Yposition Zposition Zrotation Xrotation Yrotation
        End Site
        {
          OFFSET 0 -8.7287 10.7106
        }
      }
    }
  }
  JOINT RightUpLeg
  {
    OFFSET -8.2078 -6.7517 -1.5996
    CHANNELS 6 Xposition Yposition Zposition Zrotation Xrotation Yrotation
    JOINT RightLeg
    {
      OFFSET 0 -44.3705 0.2862
      CHANNELS 6 Xposition Yposition Zposition Zrotation Xrotation Yrotation
      JOINT RightFoot
      {
        OFFSET 0 -44.4277 -2.9838
        CHANNELS 6 Xposition Yposition Zposition Zrotation Xrotation Yrotation
        End Site
        {
          OFFSET 0 -8.7287 10.7106
        }
      }
    }
  }
}
MOTION
Frames:	4
Frame Time:	0.0333333
0.079352 82.2344 2.42661 -1.69402 7.40968 2.32591 4.44089e-016 10.1816 0.1315 0.130192 1.49346 -1.8394 0 10.0835 -1.0008 3.0742 4.30249 -3.13205 0 9.1 -1.3734 3.00245 4.30965 -3.19078 8.88178e-016 16.6717 -2.5162 -0.42888 -3.33501 1.12855 0 9.6179 1.685 -0.428872 -3.33495 1.12855 0 7.59293 2.585 -0.428874 -3.335 1.12854 4.5704 10.946 -2.628 1.6404 -0.650792 7.41151 10.5924 -0.5246 -2.2321 -61.2683 -14.8358 -4.51964 27.8415 -0.0001 8.88178e-016 -11.9953 -7.59683 -115.419 28.3288 -1.42109e-014 0 -36.0893 -68.4113 -38.4348 2.4661 -1.575 2.6824 12.2586 10.8203 16.9658 3.2298 -1.8647 1.8647 -0.176528 1.13019 5.70391 9.1093 -0.5171 2.2601 -87.3824 -6.6368 5.81867 3.6764 0 1.42109e-014 -85.2699 -5.37335 5.83554 9.5334 3.55271e-015 0 -78.9568 -7.74519 1.37844 3.6982 0 1.42109e-014 -66.9533 -3.56375 5.38674 9.1045 -0.0439 -1.8651 -86.1106 -8.5503 0.905513 3.154 0 -1.42109e-014 -61.177 -3.03265 5.12803 8.0778 -0.4887 -3.8061 -83.7628 -10.2239 -1.91509 3.6 0 -1.42109e-014 -94.5988 -6.32401 5.83662 -4.57 10.9462 -2.628 13.1676 -1.31011 -7.82624 -10.5928 -0.5248 -2.2321 49.0116 -12.6052 14.5029 -27.8415 -1.42109e-014 0 11.9436 -7.62088 115.03 -28.3288 -7.10543e-015 0.0001 49.6142 -53.1698 46.6937 -8.0767 -0.4885 -3.806 83.9833 -9.22426 12.1335 -3.6 -1.42109e-014 0.0001 95.1461 -1.53096 -2.9373 -9.1036 -0.0439 -1.8651 85.6078 -5.6934 0.788038 -3.154 1.42109e-014 1.42109e-014 61.561 0.137833 -2.59275 -9.5325 0 1.42109e-014 78.3489 -4.50909 -3.27702 -3.6982 1.42109e-014 1.42109e-014 67.3973 -0.133261 -2.72219 -9.1083 -0.5168 2.2601 87.274 0.303131 -4.9538 -3.6764 1.42109e-014 1.42109e-014 85.7809 -1.05039 -2.94085 -2.4648 -1.5727 2.6826 -10.6023 9.48972 -15.5271 -3.2298 -1.8647 1.8647 -0.801563 1.74206 -7.35649 8.2078 -6.7517 -1.5996 5.51479 19.7353 15.4424 -3.55271e-015 -44.3705 0.2846 8.98917 24.3991 -9.74437 0 -44.4279 -2.9822 -1.25121 -38.4036 -2.80738 -8.2078 -6.7517 -1.5996 -3.29193 -60.345 -4.5729 0 -44.3705 0.2862 -0.860158 75.0935 -1.82152 0 -44.4277 -2.9838 -4.97984 -23.1199 1.42135 
0.442727 87.1324 2.89969 -0.425089 6.96067 6.05639 0 10.1816 0.1315 0.845472 2.311 -2.20456 0 10.0835 -1.0008 2.13168 2.92732 -3.27063 0 9.1 -1.3734 2.08591 2.92055 -3.28379 -8.88178e-016 16.6717 -2.5162 -0.73888 -2.81773 0.939137 8.88178e-016 9.6179 1.685 -0.738882 -2.81772 0.939137 0 7.59293 2.585 -0.738879 -2.81773 0.939131 4.5704 10.946 -2.628 1.36588 -0.338306 4.70925 10.5924 -0.5246 -2.2321 -59.9873 -15.0323 -12.4395 27.8415 -0.0001 1.77636e-015 -11.536 -7.79664 -111.991 28.3288 -1.42109e-014 -1.42109e-014 -31.9246 -66.7241 -33.9277 2.4661 -1.575 2.6824 11.8969 10.949 16.7153 3.2298 -1.8647 1.8647 -0.144286 1.17901 5.74364 9.1093 -0.5171 2.2601 -85.5827 -6.3386 5.95534 3.6764 1.42109e-014 1.42109e-014 -83.8761 -5.23165 5.82201 9.5334 7.10543e-015 -1.42109e-014 -77.548 -7.56474 1.59813 3.6982 0 -1.42109e-014 -66.0544 -3.47944 5.35002 9.1045 -0.0439 -1.8651 -84.8936 -8.39606 1.13248 3.154 0 0 -60.6094 -2.98192 5.09976 8.0778 -0.4887 -3.8061 -82.6925 -10.0419 -1.70083 3.6 0 0 -93.946 -6.25767 5.84163 -4.57 10.9462 -2.628 10.9252 -1.12494 -7.45814 -10.5928 -0.5248 -2.2321 49.5018 -12.2683 20.0577 -27.8415 0 -3.55271e-015 11.907 -7.63768 114.755 -28.3288 0 0.0001 47.0112 -55.9473 44.5718 -8.0767 -0.4885 -3.806 79.2801 -9.43665 10.4653 -3.6 1.42109e-014 0.0001 91.955 -1.36696 -2.9474 -9.1036 -0.0439 -1.8651 81.634 -5.24946 -0.06458 -3.154 0 0 59.3741 0.235827 -2.53724 -9.5325 -5.32907e-015 1.42109e-014 74.9726 -4.1547 -3.71569 -3.6982 0 -1.42109e-014 65.5184 -0.0445793 -2.68354 -9.1083 -0.5168 2.2601 84.0597 0.675181 -4.67376 -3.6764 0 0 83.6071 -0.938905 -2.93053 -2.4648 -1.5727 2.6826 -10.6795 9.84406 -16.0698 -3.2298 -1.8647 1.8647 -0.819378 1.7548 -7.34481 8.2078 -6.7517 -1.5996 4.19591 16.7886 12.4507 0 -44.3705 0.2846 10.6596 23.9941 -8.65113 0 -44.4279 -2.9822 0.10709 -17.4213 -2.07178 -8.2078 -6.7517 -1.5996 -7.03844 -53.5505 -7.45248 0 -44.3705 0.2862 -1.63809 66.2465 -3.09749 0 -44.4277 -2.9838 -5.50204 -20.3097 1.41451 
0.884453 93.2072 3.05012 0.719163 5.83539 9.41784 4.44089e-016 10.1816 0.1315 1.7834 4.19492 -2.03139 0 10.0835 -1.0008 1.35134 1.93646 -3.03854 0 9.1 -1.3734 1.36222 1.90043 -3.00945 -1.77636e-015 16.6717 -2.5162 -1.19109 -2.19526 0.721318 8.88178e-016 9.6179 1.685 -1.1911 -2.19526 0.721318 1.77636e-015 7.59293 2.585 -1.1911 -2.19526 0.721312 4.5704 10.946 -2.628 0.795759 0.124462 1.07451 10.5924 -0.5246 -2.2321 -57.9554 -14.6827 -22.4709 27.8415 -0.0001 0 -10.8203 -8.04627 -106.801 28.3288 0 0 -33.7406 -68.7033 -35.4868 2.4661 -1.575 2.6824 11.3537 10.1514 15.1819 3.2298 -1.8647 1.8647 -0.0685763 1.29404 5.83694 9.1093 -0.5171 2.2601 -80.6639 -5.28042 5.6946 3.6764 -1.42109e-014 0 -80.7746 -4.91773 5.77954 9.5334 3.55271e-015 0 -73.6832 -7.13089 1.7174 3.6982 0 0 -63.8441 -3.27467 5.25415 9.1045 -0.0439 -1.8651 -81.5954 -8.01857 1.41052 3.154 0 0 -58.6675 -2.81053 4.99922 8.0778 -0.4887 -3.8061 -79.7413 -9.7554 -1.26419 3.6 0 0 -91.0128 -5.95885 5.85463 -4.57 10.9462 -2.628 8.6933 -0.675707 -5.77424 -10.5928 -0.5248 -2.2321 49.0968 -14.2105 26.1283 -27.8415 1.42109e-014 0 11.7858 -7.69191 113.846 -28.3288 0 0.0001 43.4763 -57.3866 41.8314 -8.0767 -0.4885 -3.806 74.3311 -9.18717 8.89557 -3.6 0 0.0001 87.8841 -1.15732 -2.94702 -9.1036 -0.0439 -1.8651 76.5875 -4.75572 -0.543658 -3.154 1.42109e-014 1.42109e-014 56.8412 0.346517 -2.46836 -9.5325 0 -1.42109e-014 69.7489 -3.79578 -3.01148 -3.6982 0 0 62.9948 0.0724911 -2.62709 -9.1083 -0.5168 2.2601 78.6889 2.48779 -2.88999 -3.6764 -1.42109e-014 -2.84217e-014 79.7855 -0.744166 -2.9021 -2.4648 -1.5727 2.6826 -10.7351 9.11373 -15.3686 -3.2298 -1.8647 1.8647 -0.861303 1.78489 -7.31738 8.2078 -6.7517 -1.5996 3.56831 11.7626 9.89323 -3.55271e-015 -44.3705 0.2846 9.60392 25.616 -6.92953 0 -44.4279 -2.9822 1.49751 15.3349 -2.12219 -8.2078 -6.7517 -1.5996 -8.20487 -44.5717 -7.83852 0 -44.3705 0.2862 -2.30885 53.4867 -4.32 0 -44.4277 -2.9838 -4.78606 -12.3991 1.86877 
1.19459 98.6394 2.6882 1.32549 4.4033 12.444 -8.88178e-016 10.1816 0.1315 2.64875 5.85663 -1.63872 0 10.0835 -1.0008 0.834243 2.00214 -2.62183 1.77636e-015 9.1 -1.3734 0.874031 1.94678 -2.57988 1.77636e-015 16.6717 -2.5162 -1.55711 -1.61202 0.475731 -1.77636e-015 9.6179 1.685 -1.55711 -1.61208 0.475731 8.88178e-016 7.59293 2.585 -1.55716 -1.61214 0.475736 4.5704 10.946 -2.628 0.989145 0.579696 -2.60052 10.5924 -0.5246 -2.2321 -56.5969 -15.5055 -34.1569 27.8415 -0.0001 0 -9.9494 -8.25692 -100.665 28.3288 0 -7.10543e-015 -36.2023 -70.3361 -37.818 2.4661 -1.575 2.6824 10.4669 9.50849 13.2488 3.2298 -1.8647 1.8647 0.0488144 1.47372 5.982 9.1093 -0.5171 2.2601 -73.1954 -3.95942 5.38999 3.6764 -2.84217e-014 0 -76.3931 -4.47894 5.69068 9.5334 -1.06581e-014 0 -67.855 -6.43768 2.09303 3.6982 0 1.42109e-014 -60.8088 -2.99972 5.10972 9.1045 -0.0439 -1.8651 -76.5961 -7.39304 2.11404 3.154 -1.42109e-014 -1.42109e-014 -56.0166 -2.58228 4.85277 8.0778 -0.4887 -3.8061 -75.1024 -9.5615 -0.10562 3.6 0 0 -86.8773 -5.53706 5.8468 -4.57 10.9462 -2.628 6.91037 -0.265767 -3.85472 -10.5928 -0.5248 -2.2321 48.2312 -18.964 33.2399 -27.8415 1.42109e-014 0 11.5017 -7.81022 111.739 -28.3288 0 0.0001 44.3031 -60.0586 43.2556 -8.0767 -0.4885 -3.806 68.5814 -10.0331 6.03548 -3.6 1.42109e-014 0.0001 82.912 -0.902147 -2.92631 -9.1036 -0.0439 -1.8651 70.056 -4.04519 -1.53159 -3.154 -1.42109e-014 0 53.6584 0.481186 -2.37495 -9.5325 -3.55271e-015 1.42109e-014 63.0932 -3.33202 -2.07903 -3.6982 0 0 59.5149 0.229571 -2.54093 -9.1083 -0.5168 2.2601 70.6693 4.71157 -0.224857 -3.6764 0 0 74.108 -0.459424 -2.83606 -2.4648 -1.5727 2.6826 -10.6546 7.88743 -13.1625 -3.2298 -1.8647 1.8647 -0.926634 1.83165 -7.27469 8.2078 -6.7517 -1.5996 3.50413 3.06958 8.08278 0 -44.3705 0.2846 7.96765 38.7633 -2.27092 0 -44.4279 -2.9822 3.1974 26.3255 -2.33533 -8.2078 -6.7517 -1.5996 -7.76963 -35.9856 -6.99522 0 -44.3705 0.2862 -3.0295 39.7964 -7.353 0 -44.4277 -2.9838 -2.72405 1.17332 1.8496 
